<svg width="68" height="43" viewBox="0 0 68 43" fill="none" xmlns="http://www.w3.org/2000/svg">
<g clip-path="url(#clip0_435_902)">
<path d="M19.2618 13.7311C18.829 13.9845 18.2493 14.1071 17.5226 14.1071C16.4284 14.1071 14.9995 13.821 13.2358 13.257C12.4275 12.971 11.5865 12.7258 10.7291 12.5133C9.86359 12.3008 9.00624 12.1945 8.15706 12.1945C7.20173 12.1945 6.26273 12.3907 5.33189 12.7748C3.2171 13.87 2.17195 16.0687 2.17195 19.3544H0V20.3025H2.16379V38.3002H5.05428V20.2943H7.2099V19.3462H5.02161V18.6106C5.02161 17.0495 5.31556 15.897 5.90346 15.1533C6.49135 14.4095 7.62632 14.0417 9.30836 14.0417C10.427 14.0417 11.5375 14.1725 12.6561 14.4258C13.7666 14.6792 14.877 14.81 15.9712 14.81H16.3958C17.0245 14.81 17.6369 14.7364 18.2411 14.5975C18.7065 14.483 19.1148 14.3032 19.4577 14.058C19.3842 13.9518 19.3189 13.8455 19.2618 13.7393V13.7311ZM20.2661 11.7041C20.2661 11.9575 20.2416 12.1945 20.2008 12.407C20.2416 12.407 20.2824 12.407 20.3314 12.407C20.3314 12.358 20.3314 12.3008 20.3314 12.2517L20.2661 11.7041Z" fill="#006B56"/>
<path d="M25.59 38.2921H22.6995V27.6913C22.4382 24.9696 21.6381 23.0325 20.299 21.8719C19.809 21.4632 19.2701 21.2589 18.6822 21.2589C18.5189 21.2589 18.3475 21.2834 18.1678 21.3161C17.1717 21.7002 16.4695 22.4031 16.0694 23.4166C15.9224 23.8416 15.8571 24.2667 15.8571 24.6917C15.8571 25.8114 16.2082 26.6533 16.9186 27.2172C17.0574 27.3153 17.188 27.3725 17.3105 27.3725C17.5554 27.3725 17.7596 27.2336 17.9229 26.9639C18.0862 26.686 18.1678 26.3509 18.1678 25.9422C18.1678 25.4354 17.9964 24.8633 17.6534 24.234C17.9555 24.1114 18.2577 24.0541 18.5679 24.0541C19.3191 24.0541 19.956 24.3729 20.4868 25.0023C21.0175 25.6316 21.2788 26.3345 21.2788 27.1028C21.2788 27.3235 21.2461 27.5605 21.189 27.8057C20.9848 28.7211 20.5439 29.4567 19.8662 30.0125C19.1885 30.5683 18.4291 30.8462 17.5963 30.8462C16.9022 30.8462 16.2327 30.6092 15.5713 30.1433C14.9099 29.6774 14.42 29.0808 14.0934 28.3452C13.3014 29.0154 12.5012 29.3505 11.6928 29.3505C10.8845 29.3505 10.0761 29.0726 9.39838 28.525C8.72067 27.9774 8.27975 27.2418 8.07562 26.3345C8.01029 26.0893 7.9858 25.8605 7.9858 25.6316C7.9858 24.8388 8.24709 24.1359 8.77783 23.5147C9.3004 22.8935 9.94545 22.5829 10.6967 22.5829C10.9988 22.5829 11.3009 22.6483 11.6112 22.7628C11.2682 23.3676 11.0968 23.9397 11.0968 24.471C11.0968 24.8797 11.1784 25.2148 11.3417 25.4763C11.505 25.7379 11.7091 25.8768 11.9541 25.8768C12.0766 25.8768 12.2072 25.8278 12.346 25.7215C12.7135 25.4354 12.9829 25.0758 13.1544 24.6263C13.3259 24.1767 13.4157 23.7109 13.4157 23.2286C13.4157 22.6402 13.2605 22.0026 12.9421 21.3079C12.6236 20.6132 12.2236 20.2699 11.7418 20.2699H6.63037V19.3218H12.9911C13.7015 19.3218 14.2567 19.6405 14.665 20.2699H14.6976L15.0977 21.0627C15.163 20.9646 15.2284 20.8829 15.31 20.8175C16.2653 19.8204 17.3105 19.3218 18.4455 19.3218C19.5233 19.3218 20.5113 19.7713 21.4258 20.6622C21.9892 21.2507 22.4301 21.9291 22.7322 22.7055V19.3218H27.7865V20.2699H25.6309V38.2676L25.59 38.2921Z" fill="#006B56"/>
<path d="M42.6549 38.2924H39.7644V38.2597C36.7025 35.1702 32.9791 33.5273 28.5944 33.323C28.5291 32.9143 28.5046 32.4975 28.5046 32.0725C28.5046 30.6094 28.872 29.2281 29.615 27.9122C30.3581 26.6045 31.2807 25.452 32.3994 24.4549C34.3672 22.6486 36.678 21.5861 39.3398 21.2591L39.7644 21.2264V20.2865H27.1328V19.3384H50.4364V20.2865H42.6467V21.3817C44.6391 21.9539 46.2558 23.0164 47.5132 24.5775C48.4685 25.779 48.983 27.1603 49.0646 28.7214C49.0646 30.0782 48.6564 31.157 47.848 31.9499C47.3173 32.3994 46.7457 32.6201 46.117 32.6201C45.3413 32.6201 44.6881 32.285 44.141 31.6148C43.8552 31.1897 43.7164 30.732 43.7164 30.2416C43.7164 29.8983 43.7817 29.5632 43.896 29.2363L43.8634 29.5387C43.8634 30.0291 43.994 30.4787 44.2553 30.8955C44.5166 31.3123 44.9003 31.5739 45.4148 31.672L45.7822 31.7047C46.3864 31.7047 46.8355 31.4431 47.105 30.9282C47.3826 30.4133 47.5132 29.8657 47.5132 29.3017C47.5132 28.9993 47.4806 28.705 47.4234 28.419C47.0968 27.1194 46.3701 26.0405 45.2351 25.1905C44.4676 24.5612 43.6021 24.1116 42.6467 23.8501V38.2842L42.6549 38.2924ZM39.7644 34.974V23.8255C37.6905 24.1933 35.8859 25.1169 34.3427 26.5963C33.371 27.5281 32.4892 28.5661 31.6972 29.7022C31.0929 30.5113 30.2356 31.5412 29.1415 32.7754L29.2068 32.7427C29.9172 32.6609 30.5214 32.6201 31.0276 32.6201C33.8446 32.6201 36.7596 33.4047 39.7644 34.9658V34.974Z" fill="#006B56"/>
<path d="M59.3936 37.7121C58.1525 37.7121 56.9767 37.426 55.8499 36.862C54.7231 36.2981 53.7841 35.5134 53.0329 34.5163C51.8163 32.8326 51.2121 30.7484 51.2121 28.2719C51.2121 26.8497 51.3836 25.4602 51.7265 24.1034C51.604 24.9943 51.5469 25.8689 51.5469 26.7189C51.5469 29.6858 52.3062 32.0479 53.8331 33.8134C54.9109 35.0721 56.3072 35.824 58.0301 36.0692C58.2913 36.1101 58.5608 36.1264 58.8221 36.1264C59.8346 36.1264 60.7817 35.8649 61.6636 35.3336C62.5454 34.8024 63.2231 34.0749 63.6886 33.1432C64.0723 32.2931 64.2683 31.4186 64.2683 30.5195C64.2683 29.4815 64.0887 28.4517 63.7212 27.4137C63.215 28.1411 62.6597 28.8276 62.0473 29.457C61.0757 30.5522 60.0959 31.0998 59.1242 31.0998C58.618 31.0998 58.1444 30.8955 57.6953 30.495C57.3932 30.1517 57.1972 29.7758 57.1155 29.3834C57.0339 28.9829 56.9931 28.5988 56.9931 28.2065V20.2865H49.8403V19.3384H68.008V20.2865H59.8836V27.3237C60.9777 26.1059 61.8922 24.9371 62.6189 23.8174C62.9863 23.327 63.4191 23.0899 63.9253 23.0899C64.4969 23.0899 64.9623 23.376 65.3298 23.94C65.934 25.3376 66.3423 26.8006 66.5464 28.3291C66.6117 28.8358 66.6362 29.3671 66.6362 29.9147C66.6362 30.871 66.4974 31.8273 66.2116 32.7754C65.2399 35.3581 63.4028 36.9601 60.7082 37.5895C60.2592 37.6712 59.8264 37.7121 59.4018 37.7121H59.3936Z" fill="#006B56"/>
<path d="M57.5895 43.0001C56.9445 43.0001 56.3892 42.7712 55.932 42.3135C55.4747 41.8558 55.2461 41.3 55.2461 40.6543C55.2461 40.0087 55.4747 39.4529 55.932 38.9952C56.3892 38.5374 56.9363 38.3086 57.5895 38.3086C58.2427 38.3086 58.7898 38.5374 59.247 38.9952C59.7043 39.4529 59.9329 40.0005 59.9329 40.6543C59.9329 41.3082 59.7043 41.8558 59.247 42.3135C58.7898 42.7712 58.2427 43.0001 57.5895 43.0001Z" fill="#F19648"/>
<path d="M32.3422 6.67759C32.3422 6.67759 30.0641 11.6061 25.361 14.1072C23.3033 15.2024 21.556 14.7038 20.6333 13.5922C22.2663 13.4451 23.7116 12.3826 24.6506 10.6335C25.3038 9.40749 25.7447 8.15696 26.0387 6.94731C29.4436 6.19536 32.3422 6.66941 32.3422 6.66941V6.67759Z" fill="#006B56"/>
<path d="M32.3422 6.67759C32.3422 6.67759 30.0641 11.6061 25.361 14.1072C23.3033 15.2024 21.556 14.7038 20.6333 13.5922C22.2663 13.4451 23.7116 12.3826 24.6506 10.6335C25.3038 9.40749 25.7447 8.15696 26.0387 6.94731C29.4436 6.19536 32.3422 6.66941 32.3422 6.66941V6.67759Z" fill="#006B56"/>
<path d="M25.2305 0C25.2305 0 20.2987 2.26402 17.792 6.97187C16.5591 9.2931 17.3348 11.222 18.7473 12.0148C19.1393 12.2355 19.572 12.3663 20.0374 12.399C20.0946 12.399 20.1436 12.399 20.2007 12.399C20.2416 12.399 20.2824 12.399 20.3314 12.399C21.4909 12.3663 22.732 11.6715 23.5893 10.0614C24.0711 9.15415 24.4303 8.21422 24.6998 7.30698C24.8304 6.84927 24.9447 6.39156 25.0264 5.9502C25.6714 2.69721 25.2387 0 25.2387 0L25.2305 0Z" fill="#B4D269"/>
</g>
<defs>
<clipPath id="clip0_435_902">
<rect width="68" height="43" fill="white"/>
</clipPath>
</defs>
</svg>
