<svg width="32" height="32" viewBox="0 0 32 32" fill="none" xmlns="http://www.w3.org/2000/svg">
<mask id="mask0_470_665" style="mask-type:alpha" maskUnits="userSpaceOnUse" x="0" y="0" width="32" height="32">
<rect width="32" height="32" fill="#D9D9D9"/>
</mask>
<g mask="url(#mask0_470_665)">
<path d="M14.0002 22.6668C13.2668 22.6668 12.6391 22.4057 12.1168 21.8835C11.5946 21.3613 11.3335 20.7335 11.3335 20.0002V12.0002C11.3335 11.2668 11.5946 10.6391 12.1168 10.1168C12.6391 9.59461 13.2668 9.3335 14.0002 9.3335H18.0002C18.7335 9.3335 19.3613 9.59461 19.8835 10.1168C20.4057 10.6391 20.6668 11.2668 20.6668 12.0002V20.0002C20.6668 20.7335 20.4057 21.3613 19.8835 21.8835C19.3613 22.4057 18.7335 22.6668 18.0002 22.6668H14.0002ZM1.3335 22.6668V20.0002H6.66683V17.3335H4.00016C3.26683 17.3335 2.63905 17.0724 2.11683 16.5502C1.59461 16.0279 1.3335 15.4002 1.3335 14.6668V12.0002C1.3335 11.2668 1.59461 10.6391 2.11683 10.1168C2.63905 9.59461 3.26683 9.3335 4.00016 9.3335H9.3335V12.0002H4.00016V14.6668H6.66683C7.40016 14.6668 8.02794 14.9279 8.55016 15.4502C9.07239 15.9724 9.3335 16.6002 9.3335 17.3335V20.0002C9.3335 20.7335 9.07239 21.3613 8.55016 21.8835C8.02794 22.4057 7.40016 22.6668 6.66683 22.6668H1.3335ZM22.6668 22.6668V20.0002H28.0002V17.3335H25.3335C24.6002 17.3335 23.9724 17.0724 23.4502 16.5502C22.9279 16.0279 22.6668 15.4002 22.6668 14.6668V12.0002C22.6668 11.2668 22.9279 10.6391 23.4502 10.1168C23.9724 9.59461 24.6002 9.3335 25.3335 9.3335H30.6668V12.0002H25.3335V14.6668H28.0002C28.7335 14.6668 29.3613 14.9279 29.8835 15.4502C30.4057 15.9724 30.6668 16.6002 30.6668 17.3335V20.0002C30.6668 20.7335 30.4057 21.3613 29.8835 21.8835C29.3613 22.4057 28.7335 22.6668 28.0002 22.6668H22.6668ZM14.0002 20.0002H18.0002V12.0002H14.0002V20.0002Z" fill="black" fill-opacity="0.35"/>
</g>
</svg>
