<svg width="25" height="24" viewBox="0 0 25 24" fill="none" xmlns="http://www.w3.org/2000/svg">
<mask id="mask0_629_1646" style="mask-type:alpha" maskUnits="userSpaceOnUse" x="0" y="0" width="25" height="24">
<rect x="0.5" width="24" height="24" fill="#D9D9D9"/>
</mask>
<g mask="url(#mask0_629_1646)">
<path d="M8 6C7.58333 6 7.22917 6.14583 6.9375 6.4375C6.64583 6.72917 6.5 7.08333 6.5 7.5C6.5 7.91667 6.64583 8.27083 6.9375 8.5625C7.22917 8.85417 7.58333 9 8 9C8.41667 9 8.77083 8.85417 9.0625 8.5625C9.35417 8.27083 9.5 7.91667 9.5 7.5C9.5 7.08333 9.35417 6.72917 9.0625 6.4375C8.77083 6.14583 8.41667 6 8 6ZM8 16C7.58333 16 7.22917 16.1458 6.9375 16.4375C6.64583 16.7292 6.5 17.0833 6.5 17.5C6.5 17.9167 6.64583 18.2708 6.9375 18.5625C7.22917 18.8542 7.58333 19 8 19C8.41667 19 8.77083 18.8542 9.0625 18.5625C9.35417 18.2708 9.5 17.9167 9.5 17.5C9.5 17.0833 9.35417 16.7292 9.0625 16.4375C8.77083 16.1458 8.41667 16 8 16ZM4.5 3H20.5C20.7833 3 21.0208 3.09583 21.2125 3.2875C21.4042 3.47917 21.5 3.71667 21.5 4V11C21.5 11.2833 21.4042 11.5208 21.2125 11.7125C21.0208 11.9042 20.7833 12 20.5 12H4.5C4.21667 12 3.97917 11.9042 3.7875 11.7125C3.59583 11.5208 3.5 11.2833 3.5 11V4C3.5 3.71667 3.59583 3.47917 3.7875 3.2875C3.97917 3.09583 4.21667 3 4.5 3ZM4.5 13H20.5C20.7833 13 21.0208 13.0958 21.2125 13.2875C21.4042 13.4792 21.5 13.7167 21.5 14V21C21.5 21.2833 21.4042 21.5208 21.2125 21.7125C21.0208 21.9042 20.7833 22 20.5 22H4.5C4.21667 22 3.97917 21.9042 3.7875 21.7125C3.59583 21.5208 3.5 21.2833 3.5 21V14C3.5 13.7167 3.59583 13.4792 3.7875 13.2875C3.97917 13.0958 4.21667 13 4.5 13Z" fill="black" fill-opacity="0.5"/>
</g>
</svg>
