<svg width="32" height="32" viewBox="0 0 32 32" fill="none" xmlns="http://www.w3.org/2000/svg">
<mask id="mask0_470_672" style="mask-type:alpha" maskUnits="userSpaceOnUse" x="0" y="0" width="32" height="32">
<rect width="32" height="32" fill="#D9D9D9"/>
</mask>
<g mask="url(#mask0_470_672)">
<path d="M2.6665 9.33317V2.6665H9.33317V5.33317H5.33317V9.33317H2.6665ZM2.6665 29.3332V22.6665H5.33317V26.6665H9.33317V29.3332H2.6665ZM22.6665 29.3332V26.6665H26.6665V22.6665H29.3332V29.3332H22.6665ZM26.6665 9.33317V5.33317H22.6665V2.6665H29.3332V9.33317H26.6665ZM23.3332 23.3332H25.3332V25.3332H23.3332V23.3332ZM23.3332 19.3332H25.3332V21.3332H23.3332V19.3332ZM21.3332 21.3332H23.3332V23.3332H21.3332V21.3332ZM19.3332 23.3332H21.3332V25.3332H19.3332V23.3332ZM17.3332 21.3332H19.3332V23.3332H17.3332V21.3332ZM21.3332 17.3332H23.3332V19.3332H21.3332V17.3332ZM19.3332 19.3332H21.3332V21.3332H19.3332V19.3332ZM17.3332 17.3332H19.3332V19.3332H17.3332V17.3332ZM25.3332 6.6665V14.6665H17.3332V6.6665H25.3332ZM14.6665 17.3332V25.3332H6.6665V17.3332H14.6665ZM14.6665 6.6665V14.6665H6.6665V6.6665H14.6665ZM12.6665 23.3332V19.3332H8.6665V23.3332H12.6665ZM12.6665 12.6665V8.6665H8.6665V12.6665H12.6665ZM23.3332 12.6665V8.6665H19.3332V12.6665H23.3332Z" fill="white"/>
</g>
</svg>
